<?xml version="1.0" standalone="no"?>
<!DOCTYPE svg PUBLIC "-//W3C//DTD SVG 20010904//EN"
 "http://www.w3.org/TR/2001/REC-SVG-20010904/DTD/svg10.dtd">
<svg version="1.0" xmlns="http://www.w3.org/2000/svg"
 width="500.000000pt" height="500.000000pt" viewBox="0 0 500.000000 500.000000"
 preserveAspectRatio="xMidYMid meet">

<g transform="translate(0.000000,500.000000) scale(0.100000,-0.100000)"
fill="#fff" stroke="none">
<path d="M2410 4749 c-177 -28 -348 -189 -404 -378 -31 -105 -15 -255 39 -360
51 -101 199 -221 317 -256 64 -19 195 -21 263 -4 117 28 277 155 331 261 127
250 21 563 -236 690 -104 52 -193 66 -310 47z"/>
<path d="M2373 2995 c-119 -32 -247 -132 -313 -244 -115 -195 -89 -423 69
-594 206 -222 536 -222 742 1 189 204 187 487 -5 690 -62 66 -161 126 -241
147 -72 18 -182 18 -252 0z"/>
<path d="M2358 1244 c-117 -36 -262 -154 -314 -256 -127 -250 -21 -562 236
-690 284 -142 621 14 714 331 31 105 15 255 -39 360 -51 101 -199 221 -317
256 -65 19 -216 19 -280 -1z"/>
</g>
</svg>
