<?xml version="1.0" standalone="no"?>
<!DOCTYPE svg PUBLIC "-//W3C//DTD SVG 20010904//EN"
 "http://www.w3.org/TR/2001/REC-SVG-20010904/DTD/svg10.dtd">
<svg version="1.0" xmlns="http://www.w3.org/2000/svg"
 width="1024.000000pt" height="1024.000000pt" viewBox="0 0 1024.000000 1024.000000"
 preserveAspectRatio="xMidYMid meet">

<g transform="translate(0.000000,1024.000000) scale(0.100000,-0.100000)"
fill="#bdc1c6" stroke="none">
<path d="M1575 9549 c-293 -40 -557 -205 -719 -448 -203 -305 -228 -686 -67
-1016 180 -368 554 -590 961 -572 459 21 839 334 952 784 31 124 32 350 1 473
-113 448 -497 765 -951 784 -59 3 -138 1 -177 -5z"/>
<path d="M4993 9549 c-281 -36 -543 -193 -707 -422 -60 -84 -129 -230 -156
-332 -33 -120 -39 -338 -12 -466 98 -475 519 -819 1002 -819 483 0 904 344
1002 819 26 127 21 345 -12 466 -133 493 -616 820 -1117 754z"/>
<path d="M8400 9549 c-144 -19 -309 -81 -440 -168 -86 -56 -216 -187 -276
-277 -67 -101 -117 -213 -146 -330 -32 -127 -32 -351 0 -477 64 -254 215 -471
427 -612 164 -109 328 -163 525 -172 413 -19 794 213 970 590 210 448 67 980
-342 1270 -201 143 -468 208 -718 176z"/>
<path d="M1490 6121 c-394 -88 -703 -399 -785 -790 -83 -398 79 -809 411
-1046 84 -60 228 -128 329 -155 103 -28 314 -38 422 -20 260 42 496 184 653
392 441 585 153 1419 -556 1609 -115 31 -356 36 -474 10z"/>
<path d="M4921 6125 c-212 -48 -364 -129 -513 -273 -132 -127 -216 -268 -275
-458 -26 -84 -27 -100 -27 -274 0 -172 2 -191 27 -273 55 -180 129 -307 254
-437 123 -130 273 -220 458 -277 84 -25 102 -27 275 -27 173 0 191 2 275 27
185 57 335 147 458 277 125 130 199 257 254 437 25 82 27 100 27 273 0 173 -2
191 -27 274 -92 297 -286 527 -550 651 -142 67 -234 87 -412 91 -114 3 -178
-1 -224 -11z"/>
<path d="M8320 6121 c-475 -105 -810 -518 -810 -1001 0 -467 311 -865 775
-993 68 -19 105 -22 250 -22 146 0 182 4 255 23 530 144 855 669 745 1203 -47
223 -183 445 -360 586 -95 76 -267 164 -380 194 -117 31 -358 36 -475 10z"/>
<path d="M1526 2715 c-154 -30 -289 -87 -421 -180 -73 -51 -197 -180 -246
-255 -205 -310 -232 -687 -73 -1017 241 -502 846 -720 1348 -484 286 134 491
383 569 691 31 123 30 349 -1 473 -78 310 -284 562 -568 693 -175 81 -423 113
-608 79z"/>
<path d="M4943 2716 c-421 -80 -740 -392 -825 -806 -27 -127 -21 -345 12 -465
154 -565 745 -889 1300 -713 269 85 493 283 615 541 66 139 86 227 92 397 4
119 1 162 -15 240 -80 386 -371 692 -752 790 -109 28 -322 36 -427 16z"/>
<path d="M8331 2710 c-407 -89 -699 -375 -798 -782 -27 -109 -24 -344 4 -458
45 -179 128 -331 253 -464 220 -233 544 -353 855 -316 622 74 1031 664 880
1267 -92 365 -381 651 -750 744 -122 31 -323 35 -444 9z"/>
</g>
</svg>
