<?xml version="1.0" standalone="no"?>
<!DOCTYPE svg PUBLIC "-//W3C//DTD SVG 20010904//EN"
 "http://www.w3.org/TR/2001/REC-SVG-20010904/DTD/svg10.dtd">
<svg version="1.0" xmlns="http://www.w3.org/2000/svg"
 width="1024.000000pt" height="1024.000000pt" viewBox="0 0 1024.000000 1024.000000"
 preserveAspectRatio="xMidYMid meet">

<g transform="translate(0.000000,1024.000000) scale(0.100000,-0.100000)"
fill="#fff" stroke="none">
<path d="M7435 8946 c-112 -27 -141 -51 -567 -475 -225 -223 -408 -410 -408
-416 0 -5 358 -368 795 -805 l795 -795 415 415 c452 452 462 463 487 598 9 49
9 80 0 133 -25 147 -20 140 -620 740 -466 465 -555 550 -602 571 -102 47 -198
58 -295 34z"/>
<path d="M3637 5242 l-2357 -2357 0 -802 0 -803 798 0 797 0 2363 2362 2362
2363 -797 797 c-439 439 -800 798 -803 798 -3 0 -1066 -1061 -2363 -2358z"/>
</g>
</svg>
